<?xml version="1.0" encoding="utf-8"?>
<!-- Generator: Adobe Illustrator 25.1.0, SVG Export Plug-In . SVG Version: 6.00 Build 0)  -->
<svg version="1.1" id="Layer_1" xmlns="http://www.w3.org/2000/svg" xmlns:xlink="http://www.w3.org/1999/xlink" x="0px" y="0px"
	 viewBox="0 0 1366 768" style="enable-background:new 0 0 1366 768;" xml:space="preserve">
<style type="text/css">
	.st0{fill:#FD566F;}
</style>
<g>
	<path class="st0" d="M683.5-144c72.02,0,141.89,13.97,207.67,41.53c63.53,26.62,120.58,64.73,169.58,113.26
		c49,48.54,87.46,105.06,114.33,167.99c27.82,65.15,41.92,134.37,41.92,205.71s-14.11,140.56-41.92,205.71
		c-26.87,62.93-65.34,119.45-114.33,167.99c-49,48.54-106.05,86.65-169.58,113.26C825.39,899.03,755.52,913,683.5,913
		s-141.89-13.97-207.67-41.53c-63.53-26.62-120.58-64.73-169.58-113.26c-49-48.54-87.46-105.06-114.33-167.99
		C164.11,525.06,150,455.85,150,384.5s14.11-140.56,41.92-205.71c26.87-62.93,65.34-119.45,114.33-167.99
		c49-48.54,106.05-86.65,169.58-113.26C541.61-130.03,611.48-144,683.5-144 M683.5-145C388.3-145,149,92.07,149,384.5
		S388.3,914,683.5,914S1218,676.93,1218,384.5S978.7-145,683.5-145L683.5-145z"/>
</g>
<g>
	<path class="st0" d="M682.68,61c43.59,0,85.87,8.54,125.67,25.38c38.44,16.27,72.97,39.56,102.62,69.23
		c29.65,29.67,52.93,64.21,69.19,102.68c16.84,39.82,25.37,82.13,25.37,125.74s-8.54,85.91-25.37,125.74
		c-16.26,38.47-39.54,73.01-69.19,102.68c-29.65,29.67-64.18,52.96-102.62,69.23c-39.8,16.84-82.08,25.38-125.67,25.38
		s-85.87-8.54-125.67-25.38c-38.45-16.27-72.97-39.56-102.62-69.23c-29.65-29.67-52.93-64.21-69.19-102.68
		c-16.83-39.82-25.37-82.13-25.37-125.74s8.54-85.91,25.37-125.74c16.26-38.47,39.54-73.01,69.19-102.68
		c29.65-29.67,64.18-52.96,102.62-69.23C596.81,69.54,639.09,61,682.68,61 M682.68,60c-178.86,0-323.85,145.07-323.85,324.02
		s144.99,324.02,323.85,324.02s323.85-145.07,323.85-324.02S861.54,60,682.68,60L682.68,60z"/>
</g>
<g>
	<path class="st0" d="M683.06,233.68c40.42,0,78.43,15.64,107.01,44.03c28.58,28.39,44.32,66.15,44.32,106.3
		s-15.74,77.91-44.32,106.3c-28.58,28.4-66.59,44.03-107.01,44.03s-78.43-15.64-107.01-44.03c-28.58-28.39-44.32-66.15-44.32-106.3
		s15.74-77.91,44.32-106.3C604.63,249.32,642.64,233.68,683.06,233.68 M683.06,232.68c-84.13,0-152.34,67.75-152.34,151.33
		s68.2,151.33,152.34,151.33S835.4,467.6,835.4,384.02S767.19,232.68,683.06,232.68L683.06,232.68z"/>
</g>
</svg>
